<svg xmlns="http://www.w3.org/2000/svg" style="display: none;"><symbol id="male" viewBox="0 0 384 384"><title>male</title><path d="m383.792969 13.9375c-.175781-1.378906-.480469-2.707031-.984375-3.953125-.015625-.03125-.015625-.074219-.023438-.113281 0-.007813-.007812-.015625-.015625-.023438-.554687-1.3125-1.3125-2.503906-2.167969-3.609375-.210937-.261719-.417968-.519531-.640624-.765625-.914063-1.03125-1.90625-1.984375-3.058594-2.761718-.03125-.023438-.070313-.03125-.101563-.054688-1.113281-.734375-2.34375-1.289062-3.632812-1.726562-.320313-.113282-.632813-.210938-.960938-.296876-1.351562-.367187-2.742187-.632812-4.207031-.632812h-112c-8.832031 0-16 7.167969-16 16s7.167969 16 16 16h73.367188l-95.496094 95.496094c-25.464844-20.367188-56.816406-31.496094-89.871094-31.496094-79.398438 0-144 64.601562-144 144s64.601562 144 144 144 144-64.601562 144-144c0-33.039062-11.121094-64.382812-31.503906-89.871094l95.503906-95.503906v73.375c0 8.832031 7.167969 16 16 16s16-7.167969 16-16v-112c0-.335938-.078125-.65625-.097656-.984375-.023438-.367187-.0625-.71875-.109375-1.078125zm-239.792969 338.0625c-61.761719 0-112-50.238281-112-112s50.238281-112 112-112c29.902344 0 58.054688 11.640625 79.222656 32.734375 21.136719 21.210937 32.777344 49.363281 32.777344 79.265625 0 61.761719-50.238281 112-112 112zm0 0"/></symbol><symbol id="shapes-and-symbols" viewBox="0 0 465.294 465.294"><title>shapes-and-symbols</title><path d="m315.735 0v33.235h92.825l-80.516 80.516c-34.757-29.434-79.623-47.281-128.633-47.281-109.961.001-199.411 89.45-199.411 199.412s89.45 199.412 199.412 199.412 199.412-89.45 199.412-199.412c0-49.009-17.847-93.876-47.281-128.633l80.516-80.516v92.825h33.235v-149.558zm-116.323 432.059c-91.624 0-166.176-74.552-166.176-166.176s74.551-166.177 166.176-166.177 166.176 74.552 166.176 166.176-74.552 166.177-166.176 166.177z"/></symbol><symbol id="shapes-and-symbols-1" viewBox="0 0 531.765 531.765"><title>shapes-and-symbols-1</title><path d="m465.294 199.412c0-109.962-89.45-199.412-199.412-199.412s-199.411 89.45-199.411 199.412c0 104.353 80.597 190.081 182.794 198.57v67.312h-83.088v33.235h83.088v33.235h33.235v-33.235h83.088v-33.235h-83.088v-67.312c102.197-8.49 182.794-94.217 182.794-198.57zm-365.588 0c0-91.624 74.552-166.176 166.176-166.176s166.176 74.552 166.176 166.176-74.552 166.176-166.176 166.176-166.176-74.552-166.176-166.176z"/></symbol><symbol id="back" viewBox="0 0 477.175 477.175"><title>back</title><path d="M145.188,238.575l215.5-215.5c5.3-5.3,5.3-13.8,0-19.1s-13.8-5.3-19.1,0l-225.1,225.1c-5.3,5.3-5.3,13.8,0,19.1l225.1,225 c2.6,2.6,6.1,4,9.5,4s6.9-1.3,9.5-4c5.3-5.3,5.3-13.8,0-19.1L145.188,238.575z"/></symbol><symbol id="next" viewBox="0 0 477.175 477.175"><title>next</title><path d="M360.731,229.075l-225.1-225.1c-5.3-5.3-13.8-5.3-19.1,0s-5.3,13.8,0,19.1l215.5,215.5l-215.5,215.5 c-5.3,5.3-5.3,13.8,0,19.1c2.6,2.6,6.1,4,9.5,4c3.4,0,6.9-1.3,9.5-4l225.1-225.1C365.931,242.875,365.931,234.275,360.731,229.075z "/></symbol><symbol id="left-arrow" viewBox="0 0 370.814 370.814"><title>left-arrow</title><polygon points="292.92,24.848 268.781,0 77.895,185.401 268.781,370.814 292.92,345.961 127.638,185.401 "/></symbol></svg>